<?xml version="1.0" standalone="no"?><!DOCTYPE svg PUBLIC "-//W3C//DTD SVG 1.1//EN" "http://www.w3.org/Graphics/SVG/1.1/DTD/svg11.dtd"><svg t="1749711620459" class="icon" viewBox="0 0 1024 1024" version="1.1" xmlns="http://www.w3.org/2000/svg" p-id="5157" xmlns:xlink="http://www.w3.org/1999/xlink" width="128" height="128"><path d="M689.493333 554.666667H554.666667V422.826667a8.533333 8.533333 0 0 0-8.533334-8.533334h-40.106666a8.533333 8.533333 0 0 0-8.533334 8.533334V554.666667h-132.266666a8.533333 8.533333 0 0 0-8.533334 8.533333v40.106667a8.533333 8.533333 0 0 0 8.533334 8.533333h133.546666v133.546667a8.533333 8.533333 0 0 0 8.533334 8.533333h40.106666a8.533333 8.533333 0 0 0 8.533334-8.533333v-131.84h133.546666a8.533333 8.533333 0 0 0 8.533334-8.533334v-40.106666a8.533333 8.533333 0 0 0-8.533334-10.24z" p-id="5158"></path><path d="M433.066667 132.266667A85.333333 85.333333 0 0 1 512 185.6h286.293333A74.666667 74.666667 0 0 1 872.533333 256v47.36h10.666667a85.333333 85.333333 0 0 1 85.333333 85.333333v426.666667a85.333333 85.333333 0 0 1-85.333333 85.333333h-682.666667a85.333333 85.333333 0 0 1-85.333333-85.333333V217.6a85.333333 85.333333 0 0 1 85.333333-85.333333z m0 64H200.96a21.333333 21.333333 0 0 0-20.906667 17.066666v602.026667a21.333333 21.333333 0 0 0 17.493334 20.906667h686.08a21.333333 21.333333 0 0 0 20.906666-17.493334V388.693333a21.76 21.76 0 0 0-17.493333-21.333333h-337.92a72.533333 72.533333 0 0 1-68.693333-49.066667v-5.973333L453.546667 213.333333a20.906667 20.906667 0 0 0-17.066667-15.786666z m365.226666 53.76H529.066667L540.586667 298.666667a8.533333 8.533333 0 0 0 8.533333 6.826666H810.666667v-42.666666a11.093333 11.093333 0 0 0-8.106667-10.666667z" p-id="5159"></path></svg>