<?xml version="1.0" standalone="no"?><!DOCTYPE svg PUBLIC "-//W3C//DTD SVG 1.1//EN" "http://www.w3.org/Graphics/SVG/1.1/DTD/svg11.dtd"><svg t="1749710510430" class="icon" viewBox="0 0 1024 1024" version="1.1" xmlns="http://www.w3.org/2000/svg" p-id="1150" xmlns:xlink="http://www.w3.org/1999/xlink" width="128" height="128"><path d="M800 544H238.96c-16.7 0-31.62-9.97-38.01-25.4-6.39-15.43-2.89-33.03 8.92-44.84L435.9 247.73c9.76-9.76 25.59-9.76 35.36 0 9.76 9.76 9.76 25.59 0 35.36L260.35 494H800c13.81 0 25 11.19 25 25s-11.19 25-25 25zM453.04 808.58c-6.4 0-12.8-2.44-17.68-7.32L263.29 629.19c-9.76-9.76-9.76-25.59 0-35.36s25.59-9.76 35.36 0L470.72 765.9c9.76 9.76 9.76 25.59 0 35.36-4.88 4.88-11.28 7.32-17.68 7.32z" fill="#333333" p-id="1151"></path></svg>