<?xml version="1.0" standalone="no"?><!DOCTYPE svg PUBLIC "-//W3C//DTD SVG 1.1//EN" "http://www.w3.org/Graphics/SVG/1.1/DTD/svg11.dtd"><svg t="1749710548731" class="icon" viewBox="0 0 1024 1024" version="1.1" xmlns="http://www.w3.org/2000/svg" p-id="1316" xmlns:xlink="http://www.w3.org/1999/xlink" width="128" height="128"><path d="M792.82 544H231.79c-13.81 0-25-11.19-25-25s11.19-25 25-25h539.66L560.54 283.09c-9.76-9.76-9.76-25.59 0-35.36 9.76-9.76 25.59-9.76 35.36 0l226.03 226.03c11.81 11.81 15.31 29.41 8.92 44.84-6.39 15.43-21.31 25.4-38.01 25.4z m-6.26-34.88zM578.74 808.58c-6.4 0-12.8-2.44-17.68-7.32-9.76-9.76-9.76-25.59 0-35.36l172.07-172.07c9.76-9.76 25.59-9.76 35.36 0s9.76 25.59 0 35.36L596.42 801.26c-4.88 4.88-11.28 7.32-17.68 7.32z" fill="#333333" p-id="1317"></path></svg>