<?xml version="1.0" standalone="no"?><!DOCTYPE svg PUBLIC "-//W3C//DTD SVG 1.1//EN" "http://www.w3.org/Graphics/SVG/1.1/DTD/svg11.dtd"><svg t="1749710587320" class="icon" viewBox="0 0 1024 1024" version="1.1" xmlns="http://www.w3.org/2000/svg" p-id="1482" xmlns:xlink="http://www.w3.org/1999/xlink" width="128" height="128"><path d="M515.5 870c-48.08 0-94.75-9.44-138.72-28.05-42.45-17.97-80.57-43.68-113.31-76.42s-58.46-70.87-76.42-113.31C168.44 608.25 159 561.58 159 513.5s9.43-94.81 28.03-138.77c17.96-42.45 43.66-80.58 76.39-113.31s70.86-58.43 113.31-76.39C420.7 166.43 467.39 157 515.5 157c69.13 0 136.19 19.82 193.93 57.31 41.35 26.85 76.46 61.72 103.41 102.4V249c0-13.81 11.19-25 25-25s25 11.19 25 25v125.23c0 16.77-11.45 30.93-27.84 34.42-16.42 3.5-32.67-4.76-39.53-20.1-0.7-1.56-1.41-3.11-2.13-4.65-24.35-52.11-62.78-96.25-111.15-127.66-49.61-32.22-107.25-49.25-166.69-49.25-81.87 0-158.84 31.88-216.73 89.77C240.88 354.65 209 431.62 209 513.49c0 81.8 31.9 158.75 89.83 216.67 57.93 57.93 134.88 89.83 216.67 89.83 81.87 0 158.84-31.88 216.73-89.77C790.12 672.33 822 595.36 822 513.49c0-13.81 11.19-25 25-25s25 11.19 25 25c0 48.12-9.43 94.81-28.03 138.77-17.96 42.45-43.66 80.58-76.39 113.31S696.73 824 654.27 841.96c-43.97 18.6-90.66 28.03-138.77 28.03z" fill="#333333" p-id="1483"></path><path d="M708.83 408.11c-13.76 0-24.94-11.12-25-24.89-0.06-13.81 11.09-25.05 24.89-25.11l26.17-0.11h0.11c13.76 0 24.94 11.12 25 24.89 0.06 13.81-11.09 25.05-24.89 25.11l-26.17 0.11h-0.11z" fill="#333333" p-id="1484"></path></svg>